<?xml version="1.0" encoding="utf-8"?>
<!-- Generator: Adobe Illustrator 19.1.0, SVG Export Plug-In . SVG Version: 6.00 Build 0)  -->
<svg version="1.1" xmlns="http://www.w3.org/2000/svg" xmlns:xlink="http://www.w3.org/1999/xlink" x="0px" y="0px"
	 viewBox="0 0 527.3 501.6" style="enable-background:new 0 0 527.3 501.6;" xml:space="preserve">

		<polyline class="stroke" points="105.4,189.3 113.3,154.5 229.6,97.7 		"/>
		<polyline class="stroke" points="132.7,396.1 76.1,319.2 89.6,259.2 		"/>
		<polyline class="stroke" points="354,451.2 347.1,460.5 180.1,460.5 173.3,451.2 		"/>
		<polyline class="stroke" points="437.9,259 451.2,320.2 394.7,396.4 		"/>
		<polyline class="stroke" points="297.1,96.2 414,148.6 422.8,189.3 		"/>

			<path class="stroke" d="M521.3,189.3H385.1c-6.9,0-12.3,5.7-14.4,12.4c-5.3,16.9-21.1,29.2-39.7,29.2c-23,0-41.5-18.6-41.5-41.5
				c0-12.8,5.8-24.2,14.9-31.8c5.3-4.4,8.9-11.8,6.8-18.4L267.5,4.9c-2.1-6.6-5.6-6.6-7.7,0l-43.2,132.9c-2.1,6.6,1.1,14.8,5.7,20
				c6.4,7.3,10.3,16.8,10.3,27.3c0,22.9-18.6,41.5-41.5,41.5c-17.1,0-31.7-10.4-38-25.2c-2.7-6.4-8.7-12.1-15.7-12.1H6
				c-6.9,0-8,3.3-2.4,7.4l116.5,84.6c5.6,4.1,14.2,3.3,20.5,0.3c5.4-2.6,11.4-4.1,17.8-4.1c22.9,0,41.5,18.6,41.5,41.5
				c0,22.9-18.6,41.5-41.5,41.5c-2.3,0-4.6-0.2-6.8-0.7c-3.7-0.7-8.3,3.6-10.4,10.2l-40.5,124.8c-2.1,6.6,0.7,8.6,6.3,4.5
				l111.7-81.1c5.6-4.1,7.1-11.8,5.3-18c-1.1-3.7-1.7-7.5-1.7-11.5c0-22.9,18.6-41.5,41.5-41.5s41.5,18.6,41.5,41.5
				c0,4-0.6,7.9-1.7,11.5c-1.8,6.2-0.3,13.9,5.3,18l111.7,81.1c5.6,4.1,8.4,2,6.3-4.5l-40.2-123.8c-2.1-6.6-6.1-11.3-8.9-10.9
				c-1.7,0.3-3.3,0.4-5.1,0.4c-22.9,0-41.5-18.6-41.5-41.5c0-22.9,18.6-41.5,41.5-41.5c5.6,0,10.9,1.2,15.8,3.2
				c6.4,2.7,15.2,3.2,20.8-0.9l114.6-83.2C529.3,192.6,528.2,189.3,521.3,189.3z M263.6,303c-20,0-36.3-16.2-36.3-36.3
				c0-20,16.2-36.3,36.3-36.3s36.3,16.2,36.3,36.3C299.9,286.8,283.6,303,263.6,303z"/>



</svg>
